<?xml version="1.0" encoding="UTF-8"?>
<!DOCTYPE svg PUBLIC "-//W3C//DTD SVG 1.1//EN" "http://www.w3.org/Graphics/SVG/1.1/DTD/svg11.dtd">
<!-- Creator: CorelDRAW 2018 (64-Bit) -->
<svg xmlns="http://www.w3.org/2000/svg" xml:space="preserve" width="2770px" height="1344px" version="1.1" style="shape-rendering:geometricPrecision; text-rendering:geometricPrecision; image-rendering:optimizeQuality; fill-rule:evenodd; clip-rule:evenodd"
viewBox="0 0 2770 1343.9"
 xmlns:xlink="http://www.w3.org/1999/xlink">
 <defs>
  <style type="text/css">
   <![CDATA[
    .fil4 {fill:#FDD5BB;fill-rule:nonzero}
    .fil15 {fill:#FBB362;fill-rule:nonzero}
    .fil28 {fill:#F7C19E;fill-rule:nonzero}
    .fil19 {fill:#EEBFA1;fill-rule:nonzero}
    .fil37 {fill:#EDEDEB;fill-rule:nonzero}
    .fil5 {fill:#E9BB9F;fill-rule:nonzero}
    .fil31 {fill:#E7AD8B;fill-rule:nonzero}
    .fil26 {fill:#DB9F79;fill-rule:nonzero}
    .fil0 {fill:#D6665C;fill-rule:nonzero}
    .fil16 {fill:#D99856;fill-rule:nonzero}
    .fil36 {fill:#D3626A;fill-rule:nonzero}
    .fil6 {fill:#D3EDF3;fill-rule:nonzero}
    .fil7 {fill:#CBE6F4;fill-rule:nonzero}
    .fil13 {fill:#BD7D69;fill-rule:nonzero}
    .fil14 {fill:#A56A5D;fill-rule:nonzero}
    .fil9 {fill:#B4DDEE;fill-rule:nonzero}
    .fil32 {fill:#ADE0F1;fill-rule:nonzero}
    .fil25 {fill:#5B3F47;fill-rule:nonzero}
    .fil10 {fill:#45373C;fill-rule:nonzero}
    .fil34 {fill:#7FAF61;fill-rule:nonzero}
    .fil42 {fill:#372F33;fill-rule:nonzero}
    .fil22 {fill:#6A4C72;fill-rule:nonzero}
    .fil40 {fill:#6B77A8;fill-rule:nonzero}
    .fil24 {fill:#5490CC;fill-rule:nonzero}
    .fil17 {fill:#42BB98;fill-rule:nonzero}
    .fil38 {fill:#6757A3;fill-rule:nonzero}
    .fil41 {fill:#1EAAC9;fill-rule:nonzero}
    .fil8 {fill:#4986A8;fill-rule:nonzero}
    .fil18 {fill:#419F81;fill-rule:nonzero}
    .fil11 {fill:#4C7EBF;fill-rule:nonzero}
    .fil39 {fill:#5A4F87;fill-rule:nonzero}
    .fil12 {fill:#4271A2;fill-rule:nonzero}
    .fil29 {fill:#47446B;fill-rule:nonzero}
    .fil1 {fill:#2E7091;fill-rule:nonzero}
    .fil3 {fill:#2C3E46;fill-rule:nonzero}
    .fil27 {fill:#2A657A;fill-rule:nonzero}
    .fil2 {fill:#2B6586;fill-rule:nonzero}
    .fil20 {fill:#4C7EBF;fill-rule:nonzero}
    .fil23 {fill:#5EA4D9;fill-rule:nonzero}
    .fil21 {fill:#74547B;fill-rule:nonzero}
    .fil33 {fill:#8DC26A;fill-rule:nonzero}
    .fil30 {fill:#D3EDF3;fill-rule:nonzero}
    .fil35 {fill:#F27072;fill-rule:nonzero}
   ]]>
  </style>
 </defs>
 <g id="Layer_x0020_1">
  <metadata id="CorelCorpID_0Corel-Layer"/>
  <path class="fil0" d="M962.75 319.43c0,0 28.6,-8.57 55.29,12.79 26.71,21.37 41.37,64.43 32.14,98.83 -9.23,34.39 -38.55,52.3 -38.55,52.3l-48.88 -163.92z"/>
  <path class="fil1" d="M47.09 1088.39c-7.89,19.15 -11.65,47.31 -9.77,78.61 1.88,31.29 1.25,48.18 -8.13,79.48 -9.39,31.28 -25.66,87.72 -25.66,87.72l284.01 0 0 -329.92c0,0 -78.12,-17.52 -135.7,12.52 -57.57,30.04 -104.75,71.59 -104.75,71.59z"/>
  <path class="fil2" d="M151.84 1016.8c-57.57,30.04 -104.75,71.59 -104.75,71.59 -2.49,6.04 -4.51,13.05 -6.13,20.7 0.58,0.74 23.59,29.82 75.33,43.02 52.4,13.37 63.94,8.93 63.94,8.93l28.42 -77.52 6.22 83.18c0,0 37.93,7.41 72.67,7.94l0 -170.36c0,0 -78.12,-17.52 -135.7,12.52z"/>
  <path class="fil3" d="M378.7 55.98c0,0 52.82,-25.34 88.75,24.14 35.92,49.48 8.6,112.53 -31.95,119.25 -40.55,6.71 -56.8,-143.39 -56.8,-143.39z"/>
  <path class="fil4" d="M426.46 126.24c5.8,19.89 13.26,78.52 7.46,127.1 -5.8,48.57 -41.54,115.93 -62.26,129.19 -20.72,13.26 -55.07,-3.96 -55.07,-3.96 0,0 -4.55,12.4 -6.78,23.25 -2.48,12.06 10.41,28.24 29.05,53.75 7.1,9.7 18.89,28.08 29.06,54.72 0,0 -151.93,-37.68 -179.28,-128 0,0 17.4,-25.68 25.69,-69.6 0,0 -41.43,-42.26 -47.23,-88.67 -5.8,-46.4 9.94,-101.09 59.66,-143.36 49.72,-42.26 157.44,-52.2 199.7,45.58z"/>
  <path class="fil5" d="M240.93 359.19c14.66,17.33 58.51,33.76 69.98,37.84 2.36,-9.4 5.68,-18.46 5.68,-18.46 -19.96,-6.99 -60.81,-31.16 -71.21,-50.37 -10.4,-19.22 -8.4,-60.86 -8.4,-60.86 0,0 -5.56,6.2 -9.67,26.1 -4.11,19.9 -3.32,45.73 13.62,65.75z"/>
  <path class="fil3" d="M211.31 326.45c9.73,-11.89 13.89,-20.87 16,-26.08 7.3,-18.02 8.66,-27.69 9.67,-33.03 -10.77,3.31 -38.12,-5.93 -44.17,-31.3 -6.54,-27.42 -1.86,-41.56 8.91,-49.85 10.77,-8.28 27.36,-8.95 38.94,8.42 9.93,14.88 7,27.02 13.09,29.51 6.09,2.48 27.3,-18.33 28.96,-55.62 0,0 31.49,21.55 59.66,0 28.18,-21.54 18.23,-50.55 18.23,-50.55 0,0 9.92,21.55 36.03,23.21 26.12,1.65 29.83,-14.92 29.83,-14.92 0,0 8.27,-33.21 -24.05,-57.24 0,0 3.03,-48.79 -53.47,-62.84 -9.17,-2.28 -18.14,-3.55 -26.81,-3.92l-10.95 0c-42.87,1.92 -76.15,26.28 -83.75,59.12 0,0 -46.39,-5.91 -66.63,30.13 -24.26,43.21 -15.36,82.98 -2.53,130.9 10.08,37.63 25.15,73.45 32.86,86.98 10.93,19.18 20.18,17.08 20.18,17.08z"/>
  <path class="fil6" d="M198.11 364.55c-6.61,13.03 -41.93,25.75 -65.42,40.87 -23.48,15.13 -78.35,68.61 -62.46,176.12 15.96,107.96 38.74,300.37 36.13,336.04 -2.6,35.66 -10.43,58.28 -30.44,99.16 -20.01,40.88 -33.05,66.98 -33.05,66.98 0,0 30.44,41.75 129.6,50.45l38.28 -96.55 8.69 105.25c0,0 122.91,18.68 169.3,2.93 0,0 29.25,-425.3 21.79,-499.93 -13.54,-135.58 -88.13,-213.04 -88.13,-213.04 0,0 -38.05,4.23 -65.64,-11.13 -48.45,-26.97 -58.65,-57.15 -58.65,-57.15z"/>
  <path class="fil7" d="M84.02 999.71c-0.01,0 -0.01,0 -0.02,0 13.93,-30.44 20,-51.25 22.28,-81.05 -2.28,29.81 -8.32,50.6 -22.26,81.05zm22.27 -81.07c0,-0.04 0,-0.09 0.01,-0.13 -0.01,0.04 -0.01,0.09 -0.01,0.13zm0.01 -0.19c0,-0.03 0,-0.07 0.01,-0.11 -0.01,0.04 -0.01,0.08 -0.01,0.11zm0.02 -0.2c0,-0.03 0,-0.06 0,-0.1 0,0.04 0,0.07 0,0.1zm0.01 -0.19c0,-0.04 0,-0.06 0.01,-0.1 -0.01,0.04 -0.01,0.06 -0.01,0.1zm0.01 -0.22c0.01,-0.02 0.01,-0.04 0.01,-0.07 0,0.03 0,0.05 -0.01,0.07zm0.02 -0.26c0.3,-4 0.26,-10.07 -0.05,-17.68l0.02 -0.01c0.3,7.66 0.33,13.67 0.03,17.69zm-31.99 -307.27c-0.01,-0.01 -0.01,-0.02 -0.01,-0.03 -1.28,-9.14 -2.54,-17.95 -3.76,-26.25 1.22,8.31 2.48,17.12 3.77,26.28z"/>
  <path class="fil8" d="M270.2 1148.87c-28.83,-2.67 -50.76,-6 -50.76,-6l-1.46 -17.7 0 0 1.46 17.7c0,0 21.94,3.33 50.76,6z"/>
  <path class="fil9" d="M332.49 1152.11c-20.86,0 -43.1,-1.47 -62.29,-3.24 -28.82,-2.67 -50.76,-6 -50.76,-6l-1.46 -17.7c0.21,-0.36 76.98,-133.58 69.56,-142.06 -7.43,-8.5 -0.77,-24.32 -7.94,-36.43 -7.17,-12.11 -8.69,-24.97 -8.69,-24.97 -27.72,17.76 -137.26,78.65 -180.09,78.65 -2.5,0 -4.79,-0.22 -6.8,-0.65 13.94,-30.45 19.98,-51.24 22.26,-81.05 0.01,-0.01 0.01,-0.01 0.01,-0.02 0,-0.04 0,-0.09 0.01,-0.13 0,-0.02 0,-0.04 0,-0.06 0,-0.03 0,-0.07 0.01,-0.11 0,-0.03 0,-0.06 0.01,-0.09 0,-0.03 0,-0.06 0,-0.1 0,-0.03 0.01,-0.06 0.01,-0.09 0,-0.04 0,-0.06 0.01,-0.1 0,-0.04 0,-0.08 0,-0.12 0.01,-0.02 0.01,-0.04 0.01,-0.07 0.01,-0.06 0.01,-0.12 0.01,-0.19l0 0c0.3,-4.02 0.27,-10.03 -0.03,-17.69l53.15 -90.74 -26.79 -62.39c-4.09,0.81 -7.48,1.08 -10.17,1.08 -5.39,0 -8.01,-1.08 -8.01,-1.08 -13.87,-33.84 -28.57,-87.88 -40.14,-136.45 -1.29,-9.16 -2.55,-17.97 -3.77,-26.28 -0.13,-0.83 -0.25,-1.66 -0.37,-2.49 -9.37,-63.35 5.84,-107.92 24.71,-136.95l79.33 24.26 26.95 141.37 104.07 135.31 102.09 81.26c-6.67,144.96 -18.64,319.01 -18.64,319.01 -13.75,4.67 -34.24,6.31 -56.25,6.31z"/>
  <path class="fil10" d="M616.59 318.22c0,0 29.13,-7.29 52.19,15.2 27.58,26.9 36.97,104.21 -23.2,135.43 0,0 -30.74,-39.55 -38.1,-75.88 -7.35,-36.33 9.11,-74.75 9.11,-74.75z"/>
  <path class="fil11" d="M626.21 1123.13l28.96 211.07 -461.14 0c0,0 13.76,-116.96 71.67,-213.97l360.51 2.9z"/>
  <path class="fil12" d="M287.54 1334.2c0,0 11.57,-104.4 49.8,-159.56l15.83 0c0,0 -38.44,49.94 -52.18,159.56l-13.45 0z"/>
  <path class="fil12" d="M626.21 1123.13l-360.51 -2.9c-6.86,11.49 -13.07,23.25 -18.74,35.07 0.03,0.56 3.14,54.97 93.81,78.17 91.15,23.31 162.16,4.24 217.28,-45.58 0,0 34.42,41.08 82.4,39.01l-14.24 -103.77z"/>
  <path class="fil13" d="M306.44 679.4c-24.64,18.54 -171.92,134.44 -211.05,172.19 -39.14,37.74 -50.52,82.56 -35.58,103.91 14.94,21.34 32.02,23.48 67.59,8.53 35.58,-14.94 176.12,-96.96 176.12,-96.96 0,0 8.87,-13.32 13.85,-70.23 4.98,-56.92 -10.93,-117.44 -10.93,-117.44z"/>
  <path class="fil14" d="M317.37 796.84c1.45,-16.57 1.12,-33.43 -0.06,-49.03 -24.06,-4.57 -56.31,-10.65 -79.31,-14.82 -26.2,20.82 -55.75,44.59 -81.81,66.1 8.02,27.79 32.55,77.7 51.17,84.47 12.96,4.72 53.27,-1.13 76.56,-5.12 12.01,-6.94 19.6,-11.37 19.6,-11.37 0,0 8.87,-13.32 13.85,-70.23z"/>
  <path class="fil13" d="M592.78 648.21c-28.41,-4.05 -38.25,-7.82 -39.98,-11.63 -1.72,-3.8 0.7,-39.92 7.59,-51.12 0,0 17.43,8.39 37.23,6.16 19.8,-2.22 27.87,-15.12 39.06,-53.82 11.19,-38.7 12.06,-131.76 6.03,-159.31 -6.03,-27.55 -80.07,-78.76 -159.27,-46.27 -79.2,32.5 -92.11,149.58 -79.2,185.74 12.91,36.15 44.77,60.26 44.77,71.45 0,11.19 1.73,32.93 -11.18,39.32 -12.92,6.38 -49.09,14.2 -49.09,14.2 0,0 2.59,27.45 94.7,36.47 92.12,9.01 109.34,-31.19 109.34,-31.19z"/>
  <path class="fil15" d="M567.91 642.93c0,0 -33.96,23.43 -93.49,16.96 -59.53,-6.47 -55.37,-24.56 -55.37,-24.56 0,0 -40.33,6.26 -55.9,10.54 -30.46,8.36 -47.92,14.36 -56.71,33.53 -5.85,12.74 -16.48,113.13 -7.23,163.97l9.94 54.66c0,0 16.75,60.7 12.83,90.37 -3.93,29.68 -70.12,127.26 -70.12,127.26 0,0 -4.3,79.82 124.83,93.59 129.14,13.78 191.12,-75.75 191.12,-75.75 18.94,64.56 80.17,54.25 80.17,54.25 -13.67,-38.72 -19.91,-155.84 -14.99,-196.55 4.93,-40.7 53.38,-298.74 38.11,-311.8 -29.69,-25.37 -74.78,-32.42 -103.19,-36.47z"/>
  <path class="fil16" d="M652.78 722.85l-213.53 42.71 -141.99 63.65c0.52,5.02 1.16,9.79 1.95,14.16l5.81 31.95c21.19,-5.28 72.96,-20.9 125.54,-33.29 72.08,-16.99 156.75,-39.44 193.51,-48.38l45.61 -41.51c0.98,-8.21 1.82,-15.99 2.5,-23.19l-19.4 -6.1z"/>
  <path class="fil16" d="M524.96 986.94l-115.16 -21.95 -49.48 -61.38 -23.53 -43.71c-8.75,9.54 -8.61,25.37 -4.87,38.59 3.73,13.23 17.43,39.39 17.43,39.39l-26.93 34.2c0.28,5.98 0.19,11.56 -0.44,16.33 -0.72,5.41 -3.53,13.12 -7.62,22.06 7.26,5.02 24.33,15.5 44.67,18.97 27.12,4.63 90.09,14.32 155.45,38.85 65.36,24.53 89.25,26.05 100.22,22.38 4.92,-1.64 11.8,-8.64 17.89,-15.87 -1.76,-33.83 -1.73,-65.92 0.4,-83.6 0.31,-2.52 0.79,-5.89 1.4,-9.98l-0.32 -2.02 -109.11 7.74z"/>
  <path class="fil4" d="M528.53 939.1c-16.88,-0.96 -88.2,-3.82 -98.7,-5.42 -10.51,-1.59 -15.61,-6.36 -18.79,-14.01 -3.19,-7.64 -7.32,-20.05 -19.42,-28.33 -12.1,-8.28 -25.79,-14.01 -30.89,-21.33 -5.09,-7.33 -7.64,-21.66 -18.14,-17.2 -10.51,4.46 -6.37,23.88 -2.55,32.48 3.82,8.59 15.28,24.51 16.24,28.02 0.95,3.5 -3.51,4.46 -12.1,1.91 -8.6,-2.55 -35.03,-17.19 -35.03,-17.19l-2.54 -13.38c0,0 -10.83,-1.59 -15.92,8.92 -5.1,10.51 -3.19,21.01 0,27.38 3.18,6.37 -0.64,14.33 5.41,23.88 6.05,9.55 9.55,10.5 10.83,16.87 1.27,6.37 5.41,20.8 18.78,29.5 13.37,8.71 36.94,11.26 63.36,15.39 26.43,4.14 125.41,34.81 125.41,34.81 0,0 8.29,-10.19 14.05,-37.35 7.95,-37.57 0,-64.95 0,-64.95z"/>
  <path class="fil10" d="M643.86 385.15c-4.55,17.12 -17.62,31.89 -32.38,43.25 -14.77,11.36 -16.48,18.74 -20.45,34.64 -3.98,15.91 -12.5,26.13 -20.45,24.99 -7.95,-1.13 -4.54,-16.99 -10.22,-28.09 -5.68,-11.09 -15.91,-27 -37.49,-19.04 -21.58,7.95 -18.53,51.11 -5.29,65.31 13.25,14.2 22.9,14.2 30.28,10.79 7.39,-3.41 11.36,2.27 9.66,11.36 -1.7,9.09 -4.45,37.28 -26.03,53.18 -21.58,15.91 -75.49,9.6 -83.49,3.92 -7.99,-5.67 -27.28,-17.55 -44.89,-38 -17.6,-20.45 -29.4,-43.39 -31.18,-75.17 -2.04,-36.53 4.59,-80.32 16.81,-91.68l74.22 -83.41c0,0 20.16,-33.51 77.52,-29.53 57.36,3.97 76.11,50.55 76.11,50.55 0,0 44.29,37.67 27.27,66.93z"/>
  <path class="fil10" d="M457.91 274.55c25.83,24.04 22.23,69.89 -8.04,102.4 -30.26,32.52 -75.73,39.38 -101.56,15.34 -25.82,-24.04 -22.22,-69.89 8.04,-102.4 30.27,-32.51 75.74,-39.38 101.56,-15.34z"/>
  <path class="fil4" d="M1055.47 679.4c-32.57,-5.13 -60.03,-5.52 -92.72,-11.03 -32.69,-5.5 -48.17,-8.76 -44.91,-39.71 3.25,-30.95 6.51,-51.31 6.51,-51.31l-105.06 -5.7c0,0 -4.88,49.68 -7.33,61.08 -2.44,11.41 -3.25,11.41 -27.69,15.48 -24.43,4.07 -75.1,14 -75.1,14 0,0 6.69,27.53 140.26,51.96 133.56,24.44 206.04,-34.77 206.04,-34.77z"/>
  <path class="fil17" d="M952.25 666.53c0,0 77.37,9.26 103.22,12.87 25.86,3.61 46.89,11.33 68.69,64.29 0,0 -55.22,154.87 -50.95,179.32 6.13,35.12 -7.59,134.09 -11.87,156.94 -4.28,22.84 3.57,74.96 19.28,149.92 15.7,74.96 22.99,104.33 22.99,104.33l-551.3 0c0,0 40.7,-76.48 95.67,-146.45 54.97,-69.96 94.95,-131.36 101.38,-151.35 6.42,-19.99 -26.42,-132.79 -26.42,-132.79 0,0 -89.95,134.93 -100.66,149.93 -10.71,14.99 -16.42,13.56 -44.98,6.42 -28.55,-7.14 -62.82,-18.56 -62.82,-18.56 0,0 -12.86,-23.77 -5,-58.29 7.85,-34.52 19.05,-44.01 19.05,-44.01 0,0 14.5,0.21 20.22,0.21 5.71,0 15.7,-0.72 24.27,-20.71 8.57,-19.99 68.54,-169.91 84.96,-204.89 16.42,-34.99 27.3,-53.98 62.2,-59.83 34.89,-5.85 64.09,-5.67 64.09,-5.67 0,0 18.86,28.76 73.64,34.47 54.77,5.71 94.34,-16.15 94.34,-16.15z"/>
  <path class="fil18" d="M1060.31 1101.6l0 0 -43.67 65.1c6.13,34.93 12.26,83 -50.81,117.22 -63.08,34.22 -301.35,50.28 -301.35,50.28l439.13 0c0,0 -7.29,-29.37 -22.99,-104.33 -11.92,-56.84 -19.29,-100.5 -20.31,-128.27z"/>
  <path class="fil18" d="M1083.39 869.69l-46.99 15.58 -107.41 -53.57c0,0 -106.54,-132.72 -107.76,-134.55 -1.22,-1.82 -48.1,-17.75 -48.1,-17.75l-115.05 34.09 -0.1 0.22c-6.21,13.21 -20.39,47.12 -33.91,79.94 14.09,-3.45 57.01,-8.7 75.69,-10.05 25.24,-1.82 53.89,-23.15 53.89,-23.15 0,0 90.71,137.61 126.56,174.14 35.86,36.52 59.73,68.18 93.83,70.01 34.09,1.82 58.67,-40.84 87.06,-64.54l12.63 -13.59c-0.16,-1.22 -0.33,-2.37 -0.52,-3.46 -1.35,-7.73 3.26,-28.52 10.18,-53.31l0 -0.01z"/>
  <path class="fil18" d="M1010.88 1059.9l15.52 37.14 38.57 48.73 0 0c-4.58,-30.54 -6.06,-52.88 -3.63,-65.82 3.89,-20.77 15.57,-104.38 13.07,-145.83l-0.34 -1.98 -31.37 -62.45c0,0 -5.46,64.52 -12.04,108.73 -4.69,31.45 -19.78,81.48 -19.78,81.48z"/>
  <path class="fil18" d="M991.39 1101.64l-255.64 -38.21c-9.5,16.11 -23.29,37.08 -40.29,60.97 23.26,3.43 120.43,17.9 194.92,30.87 85.21,14.84 119.85,26.17 146.02,19.52 26.17,-6.65 21.5,-19.95 28.56,-29.02l0.01 0c-2.63,-17.5 -4.22,-32.29 -4.66,-44.17 -16.24,1.69 -68.92,0.04 -68.92,0.04z"/>
  <path class="fil4" d="M1003.58 381.77c12.11,35.59 20.44,115.18 9.08,156.03 -11.35,40.85 -24.23,47.66 -40.89,47.66 -16.66,0 -74.18,-9.56 -74.18,-9.56l-78.3 -4.25c0,0 1.79,-17.99 -11.84,-27.83 -13.63,-9.85 -69.67,-76.48 -31.81,-162.05 37.87,-85.57 131.76,-92.39 173.41,-60.58 41.65,31.8 54.53,60.58 54.53,60.58z"/>
  <path class="fil19" d="M971.77 585.46c7.24,0 13.77,-1.29 19.77,-6.11 -12.76,0.79 -28.86,-3.98 -50.74,-24.26l-21.88 8.01 -0.91 16.03c18.24,2.78 43.6,6.33 53.76,6.33z"/>
  <path class="fil0" d="M1003.58 381.77c0.06,-17.77 -40.83,-62.34 -40.83,-62.34 0,0 -32.3,-31.68 -85.37,-32.48 -53.07,-0.79 -98.67,26.47 -114.66,93.25 -15.84,66.12 -23.18,62.55 -35.04,86.82 -10.98,22.46 -25.32,87.78 46.76,129.06 77.22,44.22 151.95,26.48 170.16,18.9 18.15,-7.55 22.6,-20.12 10.08,-40.33 -10.2,-16.47 -13.82,-37.8 -14.46,-50.08 -0.63,-12.12 1.13,-17.89 -5.01,-15.74 -4.62,1.62 -15.88,1.88 -25.35,-13.55 -10.59,-17.24 -4.76,-53.86 12.67,-57.03 17.43,-3.17 26.14,9.5 28.52,25.45 2.38,15.94 -2.38,22.08 6.34,23.66 8.71,1.59 16.63,-4.75 29.31,-23.66 12.67,-18.91 18.21,-54.76 16.88,-81.93z"/>
  <path class="fil20" d="M2542.73 1013.74c16.96,17.96 40.16,59.38 44.3,91.7 4.15,32.31 0.88,61.9 -5.8,91.97 -4.5,20.29 -4.97,38.95 0,63.8 4.98,24.86 15.75,72.99 15.75,72.99l-216.96 0 -40.1 -282.76 202.81 -37.7z"/>
  <path class="fil12" d="M2451.79 1085.42c63.57,-9.93 89.38,-30.56 106.13,-51.69 -5.18,-8.02 -10.42,-14.95 -15.19,-19.99l-202.81 37.7 5.15 36.25c21.55,2.34 61.76,4.76 106.72,-2.27z"/>
  <path class="fil21" d="M2507.21 647.99c5.74,38.53 3.73,135.81 -16.58,176.55 -20.32,40.75 -19.24,58.6 -6.72,80.43 17.35,30.26 70.31,108.77 70.31,108.77 0,0 -17.49,28.68 -72.43,44.25 -54.94,15.59 -147.91,10.71 -147.91,10.71 0,0 -39.06,-92.53 -34.96,-202.91 4.1,-110.38 57.79,-287.92 57.79,-287.92 0,0 64.4,-34.03 101.3,-11.07 36.9,22.96 49.2,81.19 49.2,81.19z"/>
  <path class="fil22" d="M2508.2 741.99l-12.88 -21.91 -104.13 -92.63 -56.79 32.38c-2.3,9.21 3.89,14.05 1.53,24.12 10.94,36.77 26.97,103.28 41.04,116.45 19,17.79 70.94,48.93 103.87,43.95 3.71,-8.1 4.64,-9.5 9.79,-19.81 9.5,-19.07 15,-50.53 17.57,-82.55z"/>
  <path class="fil4" d="M2421.6 459.64c0,0 9.16,44.2 10.63,53.73 1.48,9.53 6.27,21.75 15.68,23.79 0,0 -7.69,30.13 -35.37,40.71 -27.69,10.59 -55.83,0 -55.83,0 0,0 -6.07,-19.95 -12.17,-30.94 -6.11,-11 -22.27,-17.07 -22.27,-17.07l99.33 -70.22z"/>
  <path class="fil5" d="M2422.31 463.09c-0.44,-2.16 -0.71,-3.45 -0.71,-3.45l-99.33 70.22c0,0 16.16,6.07 22.27,17.07 0,0 46.68,-9.72 66.6,-29.66 16.29,-16.3 12.94,-44.44 11.17,-54.18z"/>
  <path class="fil3" d="M2349.05 253.34c0,0 -46.89,-23.85 -84.86,6 -37.98,29.85 -37.59,105.95 -5.03,125.19 0,0 62.92,-11.67 84.83,-49.32 21.92,-37.66 5.06,-81.87 5.06,-81.87z"/>
  <path class="fil4" d="M2302.33 291.96c-19.64,8.42 -37.02,40.26 -42.64,87.09 -4.06,33.86 4.06,96.72 13.88,125.49 9.82,28.76 46.76,27.27 77.19,22.9 30.42,-4.35 53.52,-19.86 61.24,-38.8 7.72,-18.94 9.6,-29 9.6,-29 0,0 16.14,16.83 30.87,14.73 14.74,-2.1 44.2,-32.57 42.8,-66.8 -1.41,-34.23 -3.51,-98.07 -54.02,-115.61 -50.52,-17.54 -138.92,0 -138.92,0z"/>
  <path class="fil5" d="M2339.68 513.37l25.13 11.11c6.72,-1.86 12.93,-4.31 18.53,-7.21 -0.09,-0.13 -38.27,-56.03 -50.39,-68.29 -12.07,-12.21 -73.45,-35.74 -74.01,-35.93 0.14,3.12 0.31,6.29 0.54,9.51l28.77 26.42 51.43 64.39z"/>
  <path class="fil3" d="M2302.33 291.96c0,0 0.64,25.27 37.17,51.12 36.53,25.85 52.47,35.83 55.84,41.45 3.37,5.62 -4.14,27.11 0.92,33.3 5.06,6.18 17.85,-0.55 24.3,-17.28 6.17,-16.02 26.33,-24.14 37.06,-16.02 10.13,7.69 14.84,21.22 6.06,46.7 -7.28,21.17 -29.47,35.63 -42.08,28.41 0,0 -0.61,35.18 10.63,53.73 0,0 10.12,-13.88 30.91,-31.67 20.8,-17.79 43.28,-39.15 50.02,-98.72 6.75,-59.57 -38.77,-120.27 -62.38,-134.32 -23.61,-14.05 -75.88,-18.74 -101.73,4.68l-46.72 38.62z"/>
  <path class="fil3" d="M2447.91 247.09c0,0 10.73,-31.59 38.27,-49.58 27.54,-17.98 90.49,-21.92 118.59,0 28.1,21.92 48.34,55.26 54.52,94.99 6.18,39.72 13.49,59.1 44.39,82.66 30.92,23.56 68.58,66.27 43.28,130.9 -25.29,64.63 -103.41,65.76 -118.58,63.51 -15.18,-2.24 -19.68,-12.92 -9,-27.54 10.68,-14.61 24.73,-41.42 6.75,-60.33 -17.99,-18.91 -31.47,-25.09 -56.76,-40.83 -25.3,-15.74 -42.72,-34.19 -41.6,-65.71 1.13,-31.52 10.68,-70.67 1.13,-91 -9.56,-20.33 -28.85,-35.72 -57.37,-16.86 0,0 -19.73,-2.12 -23.62,-20.21z"/>
  <path class="fil22" d="M2447.91 537.16c24.38,0 54.37,7.87 64.01,61.77 9.63,53.9 14.63,108.51 12.49,140.27 -2.14,31.77 -14.64,58.42 -14.64,58.42l-98.51 -57.7c0,0 -6.78,-96.71 -8.57,-132.24 -1.78,-35.52 6.57,-69.12 45.22,-70.52z"/>
  <path class="fil23" d="M2361.84 1094.18c8.23,20.73 22.19,74.48 22.17,122.95 -0.01,33.2 -3.99,117.07 -3.99,117.07l-373.02 0 -16.26 -181.92c0,0 26.88,-86.48 116.48,-109.05 89.61,-22.57 220.51,-20.89 254.62,50.95z"/>
  <path class="fil24" d="M2361.84 1094.18c-34.11,-71.84 -165.01,-73.52 -254.62,-50.95 -89.6,22.57 -116.48,109.05 -116.48,109.05l2.66 29.73c74.08,43.53 144.91,10.16 144.91,10.16l-3.02 -77.27 37.55 73.35c122.11,-0.76 170.78,-43.93 196.41,-71.21 -2.63,-9.45 -5.22,-17.35 -7.41,-22.86z"/>
  <path class="fil25" d="M2042.23 143.71c-16.01,8.73 -39.46,11.76 -55.42,9.66 -15.97,-2.1 -24.48,-14.42 -34.56,-5.18 -12.38,11.35 -35.7,82.33 12.35,114.21 61.1,40.51 77.63,-118.69 77.63,-118.69z"/>
  <path class="fil26" d="M1970.44 225.25c-8,28.09 -8.46,64.15 0,115.29 8.47,51.13 24.65,98.28 39.96,104.84 10.75,4.61 30.92,5.24 46.52,3.5 15.6,-1.73 20.65,-3.16 23.76,22.69 3.11,25.86 101.93,-3.62 114.93,-23.55 0,0 -12.14,-46.81 -8.67,-60.68 3.47,-13.87 20.8,-33.8 26.01,-76.28 5.19,-42.47 -0.87,-118.75 -58.95,-144.75 -58.07,-26 -126.78,-4.07 -153.42,15.6 -25.79,19.04 -30.14,43.34 -30.14,43.34z"/>
  <path class="fil25" d="M2080.68 372.51c-0.87,6.8 9.24,23.74 14.56,35.13 5.32,11.4 16.84,22.68 29.76,23.41 12.91,0.73 48.37,0 63.7,-15.21 8.48,-7.62 8.48,-22.82 20.64,-50.17 12.16,-27.36 21.28,-74.97 15.2,-112.33 -6.08,-37.36 -8.64,-76.11 -44.59,-75.35 0,0 -10.12,-41.03 -48.87,-48.63 -38.75,-7.6 -68.77,3.7 -96.51,18.23 -28.11,14.73 -59.16,36.88 -59.62,64.97 0,0 5.18,15.58 22.39,19.38 12.92,2.85 7.17,10.95 7.83,19.54 1.13,14.89 3.39,24.33 14.43,32.54 10.36,7.71 14.99,8.49 14.97,25.42 -0.02,22.83 0.77,28.11 7.6,29.63 6.84,1.52 14.44,-4.56 22.8,-26.59 8.36,-22.03 24.31,-24.51 37.23,-10.36 12.92,14.16 9.17,53.72 -0.03,64.45 -11.16,13.03 -20.22,-3.94 -21.49,5.94z"/>
  <path class="fil1" d="M1635.23 1164.66c-6.26,27.64 -15.13,141.82 -16.3,169.54l434.68 0c0,0 -10.9,-81.12 -39.58,-129.39 0,0 -90.18,-72.16 -187.94,-83.79 -97.76,-11.64 -190.86,43.64 -190.86,43.64z"/>
  <path class="fil27" d="M1635.23 1164.66c-2.88,12.68 -6.29,43.57 -9.27,75.97l0 0c0,0 14.99,4.37 34.37,-13.83 19.39,-18.2 19.46,-27.48 24.02,-24.85 4.57,2.62 12.04,23.64 38.84,50.87 20.41,20.72 107.68,68.03 202.63,49.76 69.39,-13.34 94.87,-47.63 103.57,-65.14 -4.42,-11.6 -9.51,-22.8 -15.36,-32.63 0,0 -28.81,-23.05 -71.51,-45.19l-65.42 12.53 -126.2 -48.51c-65.42,11.22 -115.67,41.02 -115.67,41.02z"/>
  <path class="fil11" d="M1608.27 1147.19c0,0 15.85,93.84 21.47,187.01l-519.67 0c0,0 16.58,-147.93 27.17,-218.54l471.03 31.53z"/>
  <path class="fil12" d="M1128.9 1176.74c0,0 44.93,123.64 248.16,114.97 203.24,-8.67 236.6,-109.4 236.6,-109.4l-5.39 -35.12 -471.03 -31.53 -8.34 61.08z"/>
  <path class="fil28" d="M1341.05 140.55c-35.98,0 -103.1,20.76 -103.1,120.4 0,0 -7.61,-13.15 -17.3,-7.61 -9.69,5.54 -6.23,37.37 0,56.05 6.23,18.68 19.88,22.61 28.18,21.92 0,0 9.97,30.09 18.27,43.23 8.3,13.15 28.92,33.25 28.92,33.25l-0.64 55.91 126.63 0c0,0 0,-42.21 0,-62.97 0,-20.76 30.08,-68.51 30.08,-68.51 0,0 13.71,5.25 23.12,-12.07 10.73,-19.77 15.61,-59.12 5.73,-66.81 -15.52,-12.08 -21.52,13.84 -21.52,13.84 0,0 -6.96,-78.19 -48.48,-97.57 -41.52,-19.38 -69.89,-29.06 -69.89,-29.06z"/>
  <path class="fil29" d="M1237.66 271.92c-2.22,-20.06 -10.45,-59.81 -6.71,-96.6 3.74,-36.8 19.33,-63.62 30.56,-66.11 11.23,-2.49 11.85,9.36 24.32,11.85 0,0 -4.99,-14.97 5.61,-29.31 10.61,-14.35 19.39,3.18 39.92,13.72 24.99,12.82 36.47,6.79 54.61,18.02 21.42,13.25 22.01,28.88 22.01,28.88 0,0 11.82,-4.8 26.61,3.61 18.57,10.57 33.1,46.94 27.1,114.17 -5.33,59.72 -20.03,107.51 -39.68,130.58 -19.65,23.08 -96.64,21.35 -125.99,7.06 0,0 -24.54,-7.25 -42.06,-62.15 -10.93,-34.24 -14.82,-60.4 -16.3,-73.72z"/>
  <path class="fil30" d="M1244.33 486.97c-13.59,7.52 -41.43,21.29 -74.55,26.5 -33.11,5.21 -52.72,7.44 -66.17,24.66 0,0 48.14,54.14 56.5,152.47 6.03,70.96 -14.14,106.05 -14.14,106.05 0,0 9.42,39.08 27.22,68.47 17.81,29.4 -20.15,133.96 -29.45,169.32 -9.31,35.35 -19.58,84.97 -19.58,84.97 3.35,13.39 66.84,136.07 239.5,136.07 172.66,0 246.71,-104.57 250.06,-118.71 3.35,-14.14 -17.49,-94.89 -30.14,-161.87 -12.65,-66.98 -21.58,-123.92 -10.79,-173.04 10.79,-49.12 29.77,-115.73 34.23,-173.78 4.47,-58.05 -6.32,-112.01 -14.51,-118.7 -8.19,-6.7 -18.61,-5.58 -48,-11.54 -29.4,-5.95 -46.95,-12.13 -61.44,-18.53 0,0 -8.52,-6.03 -52.81,-1.56 -44.27,4.46 -76.65,16 -116.09,6.69 -39.45,-9.3 -58.07,-3.99 -69.84,2.53z"/>
  <path class="fil6" d="M1597.04 517.27c-2.71,-5.25 -4.54,-7.87 -4.54,-7.87 1.46,1.2 3,3.91 4.54,7.87z"/>
  <path class="fil7" d="M1139.7 1050.36c1.21,-4.99 2.55,-10.3 4.03,-15.92 8.56,-32.49 41.3,-123.44 32.73,-160.77 8.57,37.33 -24.17,128.28 -32.72,160.77 -1.34,5.08 -2.7,10.45 -4.04,15.92zm452.99 -30.51c-2.77,-13.07 -5.51,-26.27 -7.99,-39.06l0 0c2.48,12.79 5.22,25.99 7.99,39.06l0 0zm-434.95 -186.76c-7.75,-19.76 -11.77,-36.44 -11.77,-36.44l0 0c0.02,0.1 4.04,16.74 11.77,36.44zm3.5 -116.66c-0.01,-8 -0.35,-16.61 -1.13,-25.83 -0.01,-0.11 -0.02,-0.22 -0.03,-0.33 0.01,0.11 0.02,0.22 0.03,0.33 0.78,9.22 1.12,17.83 1.13,25.83zm-1.17 -26.31c-0.01,-0.06 -0.01,-0.12 -0.02,-0.19 0.01,0.07 0.01,0.13 0.02,0.19zm-0.03 -0.34c-0.01,-0.08 -0.02,-0.16 -0.03,-0.25 0.01,0.08 0.02,0.17 0.03,0.25zm-0.03 -0.35c-0.01,-0.11 -0.02,-0.21 -0.03,-0.32 0.01,0.11 0.02,0.21 0.03,0.32zm-0.04 -0.41c-0.01,-0.1 -0.02,-0.2 -0.03,-0.3 0.01,0.1 0.02,0.2 0.03,0.3zm-0.03 -0.33c-1.41,-15.53 -3.82,-29.91 -6.86,-43.16l0.02 -0.01c3.04,13.25 5.43,27.65 6.84,43.17z"/>
  <path class="fil9" d="M1456.62 1145.77c-40.3,-0.01 -269.56,-84.54 -269.56,-84.54 0,0 -23.94,9.73 -40.41,9.73 -4.38,0 -8.23,-0.69 -10.96,-2.43 1.08,-5.54 2.42,-11.59 4.01,-18.17 1.34,-5.47 2.7,-10.84 4.04,-15.92 8.55,-32.49 41.29,-123.44 32.72,-160.77 -0.75,-3.29 -1.83,-6.17 -3.27,-8.55 -6.17,-10.19 -11.34,-21.54 -15.45,-32.03 -7.73,-19.7 -11.75,-36.34 -11.77,-36.44 0.05,-0.08 15.27,-26.65 15.27,-80.22 -0.01,-8 -0.35,-16.61 -1.13,-25.83 -0.01,-0.11 -0.02,-0.22 -0.03,-0.33 0,-0.05 -0.01,-0.1 -0.01,-0.15 -0.01,-0.06 -0.01,-0.12 -0.02,-0.19 0,-0.05 -0.01,-0.1 -0.01,-0.15 -0.01,-0.08 -0.02,-0.17 -0.03,-0.25 0,-0.03 0,-0.06 0,-0.1 -0.01,-0.11 -0.02,-0.21 -0.03,-0.32 0,-0.03 -0.01,-0.06 -0.01,-0.09 -0.01,-0.1 -0.02,-0.2 -0.03,-0.3 0,-0.01 0,-0.02 0,-0.03 -1.41,-15.52 -3.8,-29.92 -6.84,-43.17l28.05 -2.59c17.86,33.64 25.2,107.05 0,178.5l48.2 118.58 236.93 0c-22.67,29.39 -39.4,50.74 -39.4,50.74 0,0 5.86,49.4 80.38,73.68l77.44 -83.64c2.48,12.79 5.22,25.99 7.99,39.06 -27.06,29.77 -110.31,119.84 -132.35,125.55 -0.96,0.25 -2.2,0.37 -3.72,0.37z"/>
  <path class="fil13" d="M1629.75 932.14l-122.49 132.29c0,0 -28.81,32.35 -38.43,39.91 -9.62,7.56 -11.68,17.18 -61.85,4.12 -50.16,-13.06 -260.16,-84.94 -260.16,-84.94 0,0 -14.72,-18.02 -4.41,-40.41 10.31,-22.4 23.55,-25.13 23.55,-25.13l242.4 53.58 18.52 -20.81 202.87 -58.61z"/>
  <path class="fil4" d="M1145.97 796.65c0,0 48.47,103.32 55.04,115.33 6.57,12.01 7.51,12.95 30.97,11.07 23.47,-1.88 292.87,-24.4 292.87,-24.4l6.89 67.73c0,0 -342.69,72.87 -370.29,79.12 -18.66,4.23 -27.37,-1.91 -39.58,-21.98 -12.2,-20.07 -81.37,-157.73 -81.37,-157.73l105.47 -69.14z"/>
  <path class="fil17" d="M1248.33 921.71l0 0c-8.03,0.66 -13.73,1.13 -16.35,1.34 -23.46,1.88 -24.4,0.94 -30.97,-11.07 -6.57,-12.01 -55.04,-115.33 -55.04,-115.33l-105.47 69.14c0,0 69.17,137.66 81.37,157.73 12.21,20.07 20.92,26.21 39.58,21.98 7.73,-1.75 40.17,-8.73 82.88,-17.86 18.49,-32.8 9.61,-86.07 4,-105.93z"/>
  <path class="fil28" d="M962.75 799.42c0,0 -142.72,-128.44 -166.98,-156.49 -24.26,-28.05 -33.36,-48.68 -54.6,-57.17 -21.23,-8.49 -20.01,-1.82 -33.36,0 -13.34,1.82 -21.84,-0.61 -32.76,7.88 -10.92,8.49 -16.98,7.28 -24.87,13.96 -7.88,6.67 -18.8,26.98 -16.98,35.33 1.82,8.34 3.03,37.46 44.28,41.7 41.25,4.25 58.23,13.35 58.23,13.35l155 214 72.04 -112.56z"/>
  <path class="fil31" d="M720.68 606.15c4.57,7.45 9.27,17.11 2.26,25.04 -7,7.93 -30.1,32.75 -30.1,32.75 0,0 -22.38,11.03 -18.78,-3.79 3.61,-14.82 46.62,-54 46.62,-54z"/>
  <path class="fil31" d="M798.26 648.21c6.5,23.24 6.81,54.73 -0.39,69.23 -7.2,14.5 -26.82,29.32 -26.82,29.32l-12.65 -17.46 39.86 -81.09z"/>
  <path class="fil30" d="M1103.61 538.13c-18.2,20.97 -31.34,48.51 -54.5,99.83 -23.15,51.31 -86.36,161.46 -86.36,161.46l-25.66 -25.03c0,0 -52.57,60.08 -51.32,131.42 0,0 43.18,54.45 59.45,67.59 16.28,13.14 33.17,15.02 56.96,-7.51 23.78,-22.53 143.79,-169.24 143.79,-169.24 0,0 32.69,-19.13 40.2,-86.72 7.51,-67.59 -33.69,-179 -82.56,-171.8z"/>
  <path class="fil32" d="M956.69 793.51c-10.88,9.69 -56.79,75.36 -45.76,142.99l5.24 6.15c0,0 -4.94,4.24 -12.1,-3.51 -7.15,-7.75 -32.19,-33.99 -36.36,-41.74 -4.18,-7.75 -1.79,-42.33 15.49,-83.46 17.3,-41.14 38.67,-60.93 48.8,-52.76 10.13,8.17 13.73,11.68 21.56,19.97 5.24,5.55 10.63,11.5 9.19,18.27l-6.06 -5.91z"/>
  <path class="fil33" d="M1683.49 773.71c-23,-12.38 -62.78,-18.22 -92.92,3.73 -3.77,2.74 -8.81,6.8 -16.3,17.8 -38.74,56.81 -147.39,195.51 -147.39,195.51 0,0 5.86,49.4 80.38,73.68l122.48 -132.29c0,0 10.65,43.54 14.84,83.73 4.19,40.19 -20.09,209.06 -20.09,209.06 0,0 18.42,0.26 35.17,-19.83 16.74,-20.09 19.19,-31.82 23.83,-31.82 4.63,0 9.52,31.11 54.9,63.79 36.04,25.95 138.59,61.16 202.96,40.74 73.73,-23.38 73.97,-57.51 78.15,-73.42 -4.42,-7.31 -13.2,-22.74 -34.13,-47.85 -20.94,-25.12 -25.12,-36.55 -25.12,-40.88 0,-4.34 8.37,-23.6 5.02,-31.14 -3.35,-7.53 -20.75,-23.44 -17.07,-35.16 3.68,-11.72 32.98,-104.66 41.35,-158.25 8.38,-53.59 0,-122.25 0,-122.25l-306.06 4.85z"/>
  <path class="fil34" d="M1606.5 770.12c24.28,-6.85 79.68,14.23 93.29,27.5 13.6,13.27 19.73,73.34 87.47,97.86 67.74,24.52 177.84,8.13 177.84,8.13l-60.24 -144.25 -207.01 -30.75 -91.35 41.51z"/>
  <path class="fil34" d="M1974.9 957.31c6.13,-23.44 11.69,-47.27 14.65,-66.2 2.93,-18.72 3.81,-39.28 3.72,-58.11 -28.1,5.58 -276.2,54.82 -277.93,53.1 -1.85,-1.82 -96.41,-54.54 -96.41,-54.54l-63.64 -9.52c-29.11,40.13 -71.37,95.21 -99.37,131.38 11.8,7.07 27.64,15.33 48.48,23.91 25.02,10.31 51.9,11.67 74.32,9.91l51.03 -55.1c0,0 4.85,19.87 9.3,45.15 25.46,-0.16 99.63,-1.04 176.59,-5.62 81.73,-4.86 143.52,-12.36 159.26,-14.36z"/>
  <path class="fil35" d="M2080.68 471.57c24.88,-9.13 99.86,-30.26 139.47,-25.5 39.6,4.75 94.52,25.34 116.7,49.11 22.17,23.76 20.59,104.02 20.59,131.48 0,27.46 -12.62,90.06 -22.42,118.43 -9.79,28.37 -12.43,91.73 -10.84,143.48 1.58,51.75 33.79,176.9 40.13,191.68 6.33,14.79 -23.87,38.52 -69.91,56.57 -57.2,22.43 -145.01,28.45 -145.01,28.45l-29.05 -80.79 -5.8 83.43c0,0 -33.8,7.92 -72.34,2.11 -38.55,-5.81 -53.34,-17.95 -56.51,-22.7 -3.17,-4.76 -13.31,-139.94 -4.8,-215.18 0,0 64.47,-41.98 74.5,-92.68 10.04,-50.69 25.29,-367.89 25.29,-367.89z"/>
  <path class="fil36" d="M2151.82 498c17.57,14.75 43.72,36.5 43.67,84.58 -0.04,37.93 -19.89,114.75 -19.89,114.75l-37.29 -10.57 13.51 -188.76z"/>
  <path class="fil36" d="M2335.02 745.09c9.8,-28.37 22.42,-90.97 22.42,-118.43 0,-23.73 1.17,-86.83 -12.81,-118.9l-17.75 -21.47c-25.94,-19.86 -72.17,-36.08 -106.73,-40.22 -12.28,-1.48 -27.95,-0.46 -44.47,1.91 6.75,2.39 25.4,17.75 30.88,29.27 5.49,11.52 23.04,20.85 44.99,15.91 21.94,-4.94 19.75,2.63 31.82,36.7 12.07,34.07 28.52,91.16 28.52,91.16l-56.5 21.91c0,0 -125.32,63.72 -190.23,96.37 -1.75,24.4 -3.53,46.55 -5.25,64.29 42.03,-9.6 100.85,-22.5 117.58,-23.52 26.88,-1.65 71.86,4.39 94.36,8.23 12.69,2.16 37.94,-8.77 57.55,-18.7 1.53,-9.61 3.38,-18.01 5.62,-24.51z"/>
  <path class="fil36" d="M2156.8 783.04l0 -76.75 -90.16 11.83c-3.81,55.97 -7.83,104.09 -11.25,121.34 -10.03,50.7 -74.51,92.68 -74.51,92.68 -0.86,7.65 -1.52,15.95 -2.03,24.65 20.13,0.13 56.03,-0.06 74.58,-2.78 26.65,-3.9 42.26,-11.7 57.86,-59.66 15.6,-47.96 31.69,-108.72 45.51,-111.31z"/>
  <path class="fil26" d="M1965.1 805.82l-269.33 40.95c-17.03,2.35 -44.44,-8.56 -66.03,-18.86 -21.58,-10.3 -24.73,-13.72 -51.2,-13.9 -26.47,-0.18 -51.04,-10.89 -56.09,-2.7 -5.04,8.19 8.62,24.59 27.1,28.99 18.48,4.4 30.25,6.79 30.25,6.79 0,0 -21.14,-0.02 -40.95,0 -19.81,0.03 -29.15,2.86 -35.09,9.36 -5.95,6.51 -4.81,18.68 -10.19,22.08 -5.38,3.39 -12.45,9.33 -12.45,18.11 0,8.77 -14.43,15.28 -14.72,23.2 -0.28,7.93 -2.71,9.95 2.32,17 5.04,7.06 44.09,26.86 77.49,29.13 33.39,2.26 63.98,-5.3 83.53,-10.25 14.78,-3.74 22.87,-6.69 55.96,-8.1 25.27,-1.07 164.52,-7.61 164.52,-7.61l114.88 -134.19z"/>
  <path class="fil37" d="M2121.67 476.1c-28.07,-14.43 -80.06,-6.6 -96.84,57.45 -16.77,64.05 -59.73,272.27 -59.73,272.27l-114.88 17.47c0,0 16.01,68.68 0,116.72 0,0 137.86,-7.31 164.62,-7.87 26.77,-0.56 58.79,-4.37 77.09,-51.65 18.3,-47.28 71.85,-234.09 80.91,-263.06 9.07,-28.98 22.03,-103.7 -51.17,-141.33z"/>
  <path class="fil38" d="M1775.25 365.05c-43.84,11.44 -84.18,47.39 -94.95,104.9 -10.77,57.51 -6.63,83.2 14.08,132.08 20.72,48.9 44.56,81.22 35.63,132.59 -8.92,51.37 7.63,80.46 45.24,116.97 53.61,52.02 188.06,64.69 255.31,0 62.67,-60.3 11.67,-146.61 11.67,-146.61 0,0 46.58,-42.45 35.81,-88.86 -10.77,-46.4 -28.17,-57.21 -67.95,-78.32 -39.77,-21.11 -61.46,-67 -73.06,-96 -11.6,-29.01 -60.2,-103.27 -161.78,-76.75z"/>
  <path class="fil39" d="M1730.01 734.62c-5.98,34.47 -0.45,58.9 15.16,82.28 28.74,11.88 85.21,32.3 98.25,34.69 6.79,1.24 32.64,-3.68 57.04,-8.59 22.5,-4.53 43.76,-9.06 47.74,-8.77 8.29,0.61 18.33,4.8 40.71,0.1 22.38,-4.71 30.59,-17.45 30.59,-17.45l38.62 -11.12c7.86,-28.98 1.54,-57.79 -5.35,-77.15l-321.93 0c-0.25,1.99 -0.47,3.96 -0.83,6.01z"/>
  <path class="fil28" d="M1976.11 682.01c0,0 194.03,-24.03 212.14,-27.43 18.11,-3.39 30,-16.98 50.37,-30 20.38,-13.01 37.93,-18.67 52.07,-16.41 14.15,2.26 36.23,3.4 43.02,3.96 6.79,0.57 3.39,13.59 -7.92,16.98 -11.33,3.4 -33.4,6.79 -31.7,9.06 1.7,2.26 39.62,2.26 45.85,-1.7 6.22,-3.96 9.62,-5.66 13.01,-13.02 3.4,-7.35 11.89,-5.66 16.41,0.57 4.53,6.23 9.06,17.55 2.84,28.3 -6.23,10.75 -12.46,15.99 -13.02,21.01 -0.57,5.02 1.7,18.04 2.26,25.96 0.57,7.93 -10.75,18.12 -13.02,23.78 -2.26,5.66 -2.83,14.71 -16.41,24.33 -13.58,9.62 -36.55,17.75 -49.01,18.88 -12.45,1.13 -62.68,-6.37 -84.76,-6.94 -22.07,-0.56 -54.32,7.4 -108.9,17.73 -42.35,8.02 -118.9,27.83 -118.9,27.83l5.67 -122.89z"/>
  <path class="fil30" d="M1592.51 509.38c0,0 14.95,-3.82 34.49,8.79 19.53,12.6 251.44,164.47 255.85,166.99 4.41,2.52 93.26,-3.15 93.26,-3.15 0,0 13.87,71.21 -5.67,122.89 0,0 -95.79,16.38 -110.28,20.79 -14.49,4.42 -24.57,2.52 -52.93,-8.19 -28.36,-10.71 -119.74,-45.37 -147.47,-49.78 -27.72,-4.41 -65.32,-4.91 -85.91,29.36 0,0 -10.62,-45.51 1.79,-117.68 13.16,-76.5 16.87,-170.02 16.87,-170.02z"/>
  <path class="fil40" d="M1846.51 827.92c-5.62,0 -11.72,-1.14 -19.77,-3.59 8.05,2.44 14.14,3.58 19.76,3.58 4.62,0 8.9,-0.77 13.66,-2.22 14.45,-4.39 109.65,-20.68 110.28,-20.79 0,0 -0.01,0.01 -0.01,0.02 0,0 -95.79,16.37 -110.28,20.79 -4.75,1.44 -9.03,2.21 -13.64,2.21z"/>
  <path class="fil9" d="M1846.5 827.91c-5.62,0 -11.71,-1.14 -19.76,-3.58 -5.46,-1.66 -11.81,-3.92 -19.51,-6.83 -28.37,-10.71 -119.73,-45.37 -147.48,-49.79 -7.53,-1.2 -15.81,-2.12 -24.27,-2.12 -22.61,0 -46.59,6.52 -61.6,31.41 10.92,-48.58 28.83,-112.74 33.16,-168.9 3.67,-47.71 -2.96,-92.62 -10,-110.83 6.34,12.08 17.67,37.96 23.37,77.16 8.13,56.25 6.34,78.91 5.42,97.95 -0.92,19.04 22.71,37.87 79.83,58.96 57.12,21.12 131.32,49.99 144.57,53.58 1,0.26 2.57,0.39 4.62,0.39 23.17,0 107.71,-15.78 120.91,-18.27 -1.41,6.12 -3.16,12.11 -5.32,17.86 -0.63,0.11 -95.83,16.4 -110.28,20.79 -4.76,1.45 -9.04,2.22 -13.66,2.22z"/>
  <path class="fil32" d="M1948.2 683.65c-0.04,-7.45 9.91,-8.4 25.57,-9.35 15.65,-0.94 23.24,-2.98 28.93,4.68 5.69,7.66 12.36,38.94 12.14,70.28 -0.16,23.32 -5.5,53.1 -14.04,56.9 -8.53,3.79 -16.6,4.74 -26.56,6.16 -9.96,1.43 -24.1,4.26 -26.04,-3.56l6.6 -1.16c0,0 10.42,-28.44 10.43,-58.36 0.01,-41.04 -7.57,-66.12 -7.57,-66.12l-9.46 0.53z"/>
  <path class="fil4" d="M2267.8 476.1c-5.4,0.55 -24.19,8.48 -41.33,3.23 -17.13,-5.26 -36.3,-33.72 -50.79,-31.35l-48.27 9.73c0,0 8.34,-11.58 20.45,-18.8 12.12,-7.22 48.6,-17.72 61.68,-21.25 17.18,-4.64 38.63,-8.81 51.03,-4.02 28.12,10.86 65.03,32.84 70.95,40.07 5.91,7.23 132.03,185.9 151.08,211.52 19.05,25.61 39.41,58.46 33.5,103.13 -5.91,44.66 -19.71,56.05 -34.16,59.55 -14.45,3.5 -65.69,-26.06 -82.11,-49.05 -16.42,-22.99 -109.04,-265.37 -114.3,-277.86 -5.25,-12.47 -11.68,-25.52 -17.73,-24.9z"/>
  <path class="fil13" d="M1065.36 1054.33l-2.74 18.38c0,0 -16.03,4.34 -25.09,3.26 -9.06,-1.09 -12.84,-3.78 -10.54,-6.67 2.31,-2.89 16.84,-10.34 24.12,-16.56 15.9,-13.6 15.82,-33.33 4.95,-29.22 -6.28,2.37 -11.56,6.8 -19.66,8.3 -8.93,1.65 -16.9,4.12 -31.54,6.97 -14.65,2.86 -25.37,9.55 -31.62,14.37 -5.57,4.3 -10.59,7.33 -18.36,6.42 -20.22,-6.93 -62.59,-21.36 -102.5,-34.96l-0.01 0c-42.45,-14.46 -82.09,-27.96 -89.24,-30.45 -15.97,-5.55 -19.95,-10.7 -22.27,-21.89 -4.65,-22.48 -17.92,-68.67 -17.92,-68.67l-75.76 113.26c0,0 2.07,14.1 10.4,39.1 8.33,25 19.44,34.73 38.88,36.81 10.3,1.1 71.2,12.52 129.95,24.26l0 0c0,0 103.6,22.25 129.97,29.04 26.37,6.79 51.75,11.1 67.76,8.36 16.01,-2.75 25.7,-14.56 29.46,-20 3.76,-5.43 7.41,-4.92 16.92,-11.4 9.51,-6.49 4.01,-21.25 7.76,-27.45 4.37,-7.23 8.66,-10.39 8.14,-22.26 -0.52,-11.87 -21.06,-19 -21.06,-19z"/>
  <path class="fil4" d="M265.77 570.04c0,0 48.39,116.61 52.56,125.73 4.18,9.11 13.05,8.1 70.41,6.07 57.38,-2.02 178.95,-7.09 195.16,-12.15 16.21,-5.07 21.28,-15.2 29.38,-29.38 8.11,-14.19 15.2,-25.34 49.65,-36.48 34.45,-11.15 54.18,-24.35 57.75,-17.68 1.95,3.65 5.13,13.7 -8.54,24.44 -13.66,10.73 -33.11,24.82 -30.43,28.17 2.68,3.35 79.61,-13.03 90.55,-22.14 10.94,-9.1 6.81,-14.47 6.81,-14.47 0,0 9.29,-2.3 14.65,6.42 5.37,8.72 6.29,38.55 4.15,52.15 -2.13,13.59 -4.82,32.37 -21.59,47.8 -16.76,15.43 -44.98,29.81 -70.79,36.44 -20.76,5.34 -50.01,2.28 -87.57,11 -37.56,8.72 -171.97,39.88 -244.34,56.22 -65.27,14.74 -135.58,30.71 -155.36,24.01 -19.78,-6.71 -41.59,-49.2 -69.76,-128.34l117.31 -157.81z"/>
  <path class="fil41" d="M126.97 412.08c-25.8,11.12 -62.81,47.62 -35.46,159.57 27.36,111.96 48.63,161.6 48.63,161.6 0,0 105.37,18.24 165.15,-77 -1.02,-6.08 -31.41,-91.17 -58.76,-155 -27.36,-63.84 -60.79,-114.5 -119.56,-89.17z"/>
  <path class="fil7" d="M1345.3 487.97c-10.11,0 -20.36,-0.99 -31.13,-3.53 -15.27,-3.6 -27.41,-5.01 -37.25,-5.01 -15.58,0 -25.37,3.55 -32.59,7.54 0,0 12.93,-19.95 122.36,-19.95 109.43,0 116.38,12.29 116.38,12.29 0,0 -4.54,-3.21 -24.19,-3.21 -7.28,0 -16.64,0.44 -28.62,1.65 -32.18,3.24 -58.07,10.22 -84.96,10.22z"/>
  <path class="fil9" d="M1359.63 517.34c-26.91,0 -45.36,-4.59 -62.29,-14.34 -18.46,-10.62 -53.01,-16.03 -53.01,-16.03l0 0c7.22,-3.99 17.01,-7.54 32.59,-7.54 9.84,0 21.98,1.41 37.25,5.01 10.77,2.54 21.02,3.53 31.13,3.53 26.89,0 52.78,-6.98 84.96,-10.22 11.98,-1.21 21.34,-1.65 28.62,-1.65 19.65,0 24.19,3.21 24.19,3.21l0 0c-0.58,-0.05 -1.17,-0.07 -1.76,-0.07 -12.74,0 -25.84,10.04 -43.92,19.08 -18.91,9.45 -39.18,18.01 -70.25,18.91 -2.57,0.07 -5.07,0.11 -7.51,0.11z"/>
  <path class="fil30" d="M1359.57 448.03c-28.24,1.34 -49.58,-7.5 -64.19,-9.86 -14.6,-2.35 -31.06,5.88 -51.05,48.8 0,0 19.99,-1.76 42.33,4.12 22.34,5.88 44.74,13.38 77.04,11.66 39.41,-2.09 62.31,-13.07 80.44,-17.58 21.86,-5.44 38.94,-5.86 38.94,-5.86 0,0 -31.99,-57.36 -61.07,-47.02 -21.41,7.61 -37.74,14.56 -62.44,15.74z"/>
  <path class="fil14" d="M1254.51 1059.9l134.25 -52.67 -23.43 -5.17 -1.14 0 -172.21 36.81c17.9,6.06 39.66,13.39 62.53,21.03z"/>
  <path class="fil41" d="M200.46 359.19c0,0 20.57,35.35 51.39,51.86 34.99,18.75 66.15,15.15 66.15,15.15l13.07 16.77c0,0 -38.94,9.43 -84.14,-14.13 -42.46,-22.13 -57.48,-55.31 -57.48,-55.31l11.01 -14.34z"/>
  <path class="fil18" d="M699.76 1118.33l18.87 -3.43 0 -24.23c-5.66,8.59 -11.97,17.84 -18.87,27.66z"/>
  <path class="fil18" d="M622.28 1053.54c10.71,-15 100.66,-149.93 100.66,-149.93 0,0 -18.32,-52.78 -13.77,-113.41 0,0 -18.81,50.84 -13.71,114.77 0,0 -71.16,116.57 -89.87,130.93 -18.71,14.36 -91.11,5.5 -91.11,5.5 0,0 34.27,11.42 62.82,18.56 28.56,7.14 34.27,8.57 44.98,-6.42z"/>
  <polygon class="fil14" points="731.9,936 655.17,1046.76 647.18,1016.87 722.94,903.61 "/>
  <path class="fil42" d="M377.28 405.95c0,0 55.56,0.18 91.87,-59.15 0,0 -16.83,75.09 -94.16,70.21 0.67,-3.97 1.46,-7.67 2.29,-11.06z"/>
  <path class="fil12" d="M2476.98 1096.61c6.32,29.09 15.81,71.88 21.5,77.36 5.69,5.48 84.42,15.53 84.42,15.53l1.39 -7.19c0,0 -68.87,-9.57 -77.82,-13.1 -6.01,-2.36 -22.54,-49.84 -29.49,-72.6z"/>
  <path class="fil24" d="M2091.27 1334.2c0,0 -12.59,-84.65 -11.61,-171.15l-9.54 0c0,0 -8.63,56.63 9.33,171.15l11.82 0z"/>
  <path class="fil12" d="M373.47 1227.21c0,0 -13.36,49.25 -13.36,64.93 0,15.69 34.75,37.97 42.77,37.08 8.02,-0.89 68.63,-13.37 76.65,-22.28 8.02,-8.91 16.93,-96.25 16.93,-96.25 0,0 -16.54,84.58 -22.08,89.92 -5.55,5.35 -59.93,21.12 -69.78,20.23 -9.85,-0.89 -36.47,-22.36 -36.47,-29.64 0,-7.28 5.34,-63.99 5.34,-63.99z"/>
  <path class="fil12" d="M283.72 1200.95c-13.21,29.36 -24.46,68.99 -28.87,75.36 -4.4,6.36 -52.16,10.04 -52.16,10.04l2.11 -9.21c0,0 30.67,-2.79 38.4,-4.26 7.74,-1.46 9.7,-8.06 14.1,-18.46 4.4,-10.41 26.42,-53.47 26.42,-53.47z"/>
  <polygon class="fil2" points="67.39,1334.2 119.91,1132.5 127.67,1132.5 77.46,1334.2 "/>
  <path class="fil2" d="M112.32 1186.76c36.27,4.81 87.12,-2.03 105.66,-61.59l1.07 12.96c0,0 -6.79,32.46 -35.16,46.85 -28.37,14.39 -55.76,12.8 -74.22,8.39l2.65 -6.61z"/>
  <path class="fil24" d="M2129.62 1186.66c4.6,36.56 9.62,75.28 18.93,83.32 9.31,8.05 75.27,12.35 84.2,9.13 8.93,-3.23 34.72,-29.91 35.26,-39.68 0.54,-9.76 -11.61,-89.28 -11.61,-89.28 0,0 2.79,78.73 2.04,86.74 -0.75,8.01 -21.06,31.5 -30.72,33.09 -9.68,1.6 -63.41,1.9 -70.93,-6.85 -7.52,-8.74 -27.17,-76.47 -27.17,-76.47z"/>
  <path class="fil12" d="M2441.6 1073.49c0,0 16.47,64.3 26.85,122.69 10.38,58.37 15.46,138.02 15.46,138.02l-10.15 0c0,0 -1.7,-67.8 -14.39,-138.02 -12.69,-70.23 -27.07,-122.69 -27.07,-122.69l9.3 0z"/>
  <path class="fil24" d="M2298.62 1152c8.64,51.05 14.43,93.85 7.06,131.92 -7.37,38.07 -9.47,50.28 -9.47,50.28l6.42 0c0,0 7.26,-38.53 10.95,-58 3.68,-19.47 2.63,-51.06 -8.69,-126.05l-6.27 1.85z"/>
  <path class="fil24" d="M2342.34 1133.04c4.82,32.13 9.1,69.08 12.85,77.64 3.75,8.57 28.73,16.12 28.73,16.12l-0.13 6.93c0,0 -27.53,-5.52 -35.56,-18.56 -8.04,-13.05 -5.89,-82.13 -5.89,-82.13z"/>
 </g>
</svg>
